<svg width="54" height="35" viewBox="0 0 54 35" fill="none" xmlns="http://www.w3.org/2000/svg">
<path d="M13.7614 27.005C13.7714 27.167 20.7954 32.493 34.0844 34.181C45.7374 35.662 53.5364 31.96 53.5714 27.286C53.5934 24.205 49.4874 20.854 48.2524 20.114C47.0174 19.375 13.7114 26.197 13.7614 27.005Z" fill="#333029"/>
<path d="M40.2964 31.913C32.1124 31.917 23.5964 29.284 17.3934 25.861C15.1524 26.418 13.7514 26.839 13.7614 27.005C13.7714 27.167 20.7954 32.493 34.0844 34.181C45.2554 35.601 52.8824 32.258 53.5254 27.862C52.6224 30.133 47.5104 31.91 40.2964 31.913Z" fill="#26231D"/>
<path d="M4.41641 23.506C2.19941 21.752 -0.0845905 19.197 0.00240951 18.007C0.21841 15.067 5.30241 9.927 11.7524 6.08C19.6064 1.395 28.1714 0 35.1294 0C41.0684 0 46.9094 1.636 48.6084 3.462C50.2014 5.174 49.6304 11.901 47.7614 15.525L4.41641 23.506Z" fill="#1A6F98"/>
<path d="M8.22441 16.62C7.57941 11.273 14.8564 4.968 18.6654 2.804C16.3394 3.653 14.0154 4.73 11.7524 6.08C5.30241 9.927 0.21841 15.067 0.00240951 18.007C-0.0845905 19.197 2.19941 21.752 4.41641 23.506L11.9224 22.124C9.77441 20.251 8.43141 18.34 8.22441 16.62Z" fill="#0D5E85"/>
<path d="M38.2224 9.27C38.5734 12.047 37.0254 14.529 34.2484 14.879C30.4744 15.355 28.5164 13.315 28.1664 10.538C27.8164 7.761 29.8794 5.214 32.9804 4.823C35.7574 4.472 37.8724 6.493 38.2224 9.27Z" fill="#0D5E85"/>
<path d="M4.41641 23.506C4.47341 24.772 4.95341 26.513 5.33641 26.7C7.20841 27.615 19.5714 27.352 32.5734 24.983C41.3984 23.375 48.3324 20.889 48.2524 20.114C48.2084 19.69 48.0224 17.085 47.7614 15.525C39.7684 14.622 13.0964 19.144 4.41641 23.506Z" fill="#126087"/>
<path d="M10.8394 21.107C8.23841 21.889 6.02041 22.7 4.41641 23.506C4.47341 24.772 4.95341 26.513 5.33641 26.7C6.52841 27.283 11.9794 27.387 19.1404 26.774C15.6744 25.06 12.7794 23.082 10.8394 21.107Z" fill="#075175"/>
<path d="M47.3714 19.311C46.5514 19.699 45.3734 20.146 43.9654 20.604C40.7364 21.655 36.7344 22.638 32.6974 23.373C23.7274 25.008 15.3744 25.59 10.5484 25.59C7.73841 25.59 5.47041 25.414 4.64141 25.066C4.82941 25.884 5.10141 26.585 5.33641 26.7C7.20841 27.615 19.5714 27.352 32.5734 24.983C41.3984 23.375 48.3324 20.889 48.2524 20.114C48.2364 19.956 48.2004 19.496 48.1484 18.9C47.9274 19.037 47.6664 19.172 47.3714 19.311Z" fill="#F8CD0C"/>
<path d="M10.5484 25.59C7.73841 25.59 5.47041 25.414 4.64141 25.066C4.82941 25.884 5.10141 26.585 5.33641 26.7C6.52841 27.283 11.9794 27.387 19.1404 26.774C18.2294 26.324 17.3584 25.855 16.5324 25.372C14.2104 25.523 12.1784 25.59 10.5484 25.59Z" fill="#F1B517"/>
<path d="M38.7564 8.736C39.1074 11.513 37.5594 13.995 34.7824 14.345C31.0084 14.821 29.0504 12.781 28.7004 10.004C28.3504 7.22699 30.4134 4.68 33.5144 4.289C36.2914 3.939 38.4064 5.959 38.7564 8.736Z" fill="#FEC52A"/>
<path d="M39.1764 8.683C39.5264 11.46 37.5594 13.995 34.7824 14.345C32.0054 14.696 29.4704 12.728 29.1194 9.951C28.7694 7.174 30.7374 4.639 33.5144 4.289C36.2914 3.939 38.8264 5.906 39.1764 8.683Z" fill="#FEE02A"/>
<path d="M33.5144 4.289C32.0694 4.471 30.8444 5.245 30.0504 6.336C30.8434 5.377 31.9884 4.706 33.3214 4.538C36.0984 4.187 38.6334 6.155 38.9834 8.932C39.1514 10.264 38.7854 11.541 38.0534 12.547C38.9134 11.507 39.3584 10.128 39.1764 8.683C38.8264 5.906 36.2914 3.939 33.5144 4.289Z" fill="#EFFB73"/>
<path d="M34.3764 13.584C32.2134 13.857 30.2304 12.319 29.9574 10.155C29.6854 7.992 31.2234 6.009 33.3874 5.736C35.5504 5.464 37.5324 7.002 37.8054 9.166C38.0784 11.329 36.5404 13.311 34.3764 13.584Z" fill="#EFFB73"/>
<path d="M34.6434 13.241C32.4794 13.514 30.4974 11.976 30.2244 9.81201C29.9514 7.64801 31.4894 5.666 33.6534 5.393C35.8174 5.12 37.7994 6.659 38.0724 8.822C38.3454 10.986 36.8064 12.968 34.6434 13.241Z" fill="#F09017"/>
<path d="M33.6534 5.393C32.4804 5.541 31.4904 6.192 30.8744 7.101C31.4894 6.407 32.3484 5.92301 33.3384 5.79901C35.5024 5.52601 37.4844 7.064 37.7574 9.228C37.8824 10.218 37.6274 11.17 37.1074 11.938C37.8354 11.115 38.2204 9.996 38.0724 8.822C37.7994 6.659 35.8174 5.12 33.6534 5.393Z" fill="#F07517"/>
<path d="M34.0164 9.442L36.2894 7.29L36.3764 7.178L31.3664 7.81L31.2794 7.922L34.0164 9.442Z" fill="#F07517"/>
<path d="M34.6674 9.394L37.0054 10.723L37.0924 10.611L36.5944 7.461L34.7544 9.282L34.6674 9.394Z" fill="#F07517"/>
<path d="M33.3724 9.557L33.4594 9.445L31.1134 8.051L31.0274 8.163L31.4384 11.425L33.3724 9.557Z" fill="#F07517"/>
<path d="M34.3564 9.698L34.0824 9.966L33.7494 9.774L31.7534 11.571L31.6664 11.683L36.8484 11.029L36.9344 10.917L34.3564 9.698Z" fill="#F07517"/>
<path d="M34.0564 9.39L36.3304 7.238L36.4174 7.126L31.4064 7.758L31.3194 7.87L34.0564 9.39Z" fill="#FEC52A"/>
<path d="M34.7084 9.342L37.0454 10.671L37.1324 10.559L36.6344 7.409L34.7954 9.23L34.7084 9.342Z" fill="#FEC52A"/>
<path d="M33.4134 9.505L33.5004 9.393L31.1544 7.999L31.0674 8.111L31.4784 11.373L33.4134 9.505Z" fill="#FEC52A"/>
<path d="M34.3974 9.646L34.1224 9.914L33.7894 9.722L31.7944 11.519L31.7074 11.631L36.8884 10.977L36.9754 10.865L34.3974 9.646Z" fill="#FEC52A"/>
<path d="M34.1434 9.278L36.4174 7.126L31.4064 7.758L34.1434 9.278Z" fill="#FEE02A"/>
<path d="M34.7954 9.23L37.1324 10.559L36.7214 7.297L34.7954 9.23Z" fill="#FEE02A"/>
<path d="M33.5004 9.393L31.1544 7.999L31.5654 11.261L33.5004 9.393Z" fill="#FEE02A"/>
<path d="M34.4844 9.534L34.2094 9.802L33.8764 9.61L31.7944 11.519L36.9754 10.865L34.4844 9.534Z" fill="#FEE02A"/>
<path d="M36.3354 7.204L36.4174 7.126L31.4064 7.758L31.5054 7.813L36.3354 7.204Z" fill="#EFFB73"/>
<path d="M34.7954 9.23L34.8054 9.236L36.6634 7.372L37.0604 10.518L37.1324 10.559L36.7214 7.297L34.7954 9.23Z" fill="#EFFB73"/>
<path d="M33.4304 9.461L33.5004 9.393L31.1544 7.999L31.1694 8.117L33.4304 9.461Z" fill="#EFFB73"/>
<path d="M33.8184 9.685L34.1514 9.877L34.4264 9.608L36.8154 10.885L36.9754 10.865L34.4844 9.534L34.2094 9.802L33.8764 9.61L31.7944 11.519L31.8214 11.515L33.8184 9.685Z" fill="#EFFB73"/>
</svg>
